<?xml version="1.0" standalone="no"?>
<!DOCTYPE svg PUBLIC "-//W3C//DTD SVG 1.1//EN" "http://www.w3.org/Graphics/SVG/1.1/DTD/svg11.dtd" >
<svg xmlns="http://www.w3.org/2000/svg">
<metadata>
Created by FontForge 20120731 at Wed Apr  5 15:57:45 2017
 By admin
</metadata>
<defs>
<font id="iconfont" horiz-adv-x="1024" >
  <font-face 
    font-family="iconfont"
    font-weight="500"
    font-stretch="normal"
    units-per-em="1024"
    panose-1="2 0 6 3 0 0 0 0 0 0"
    ascent="896"
    descent="-128"
    x-height="792"
    bbox="0 -221 1024 896"
    underline-thickness="0"
    underline-position="0"
    unicode-range="U+0078-E804"
  />
<missing-glyph 
 />
    <glyph glyph-name=".notdef" 
 />
    <glyph glyph-name=".notdef" 
 />
    <glyph glyph-name=".null" horiz-adv-x="0" 
 />
    <glyph glyph-name="nonmarkingreturn" horiz-adv-x="341" 
 />
    <glyph glyph-name="x" unicode="x" horiz-adv-x="1001" 
d="M281 543q-27 -1 -53 -1h-83q-18 0 -36.5 -6t-32.5 -18.5t-23 -32t-9 -45.5v-76h912v41q0 16 -0.5 30t-0.5 18q0 13 -5 29t-17 29.5t-31.5 22.5t-49.5 9h-133v-97h-438v97zM955 310v-52q0 -23 0.5 -52t0.5 -58t-10.5 -47.5t-26 -30t-33 -16t-31.5 -4.5q-14 -1 -29.5 -0.5
t-29.5 0.5h-32l-45 128h-439l-44 -128h-29h-34q-20 0 -45 1q-25 0 -41 9.5t-25.5 23t-13.5 29.5t-4 30v167h911zM163 247q-12 0 -21 -8.5t-9 -21.5t9 -21.5t21 -8.5q13 0 22 8.5t9 21.5t-9 21.5t-22 8.5zM316 123q-8 -26 -14 -48q-5 -19 -10.5 -37t-7.5 -25t-3 -15t1 -14.5
t9.5 -10.5t21.5 -4h37h67h81h80h64h36q23 0 34 12t2 38q-5 13 -9.5 30.5t-9.5 34.5q-5 19 -11 39h-368zM336 498v228q0 11 2.5 23t10 21.5t20.5 15.5t34 6h188q31 0 51.5 -14.5t20.5 -52.5v-227h-327z" />
    <glyph glyph-name="left" unicode="&#xe62d;" 
d="M726 -105l-393 393l394 393q9 10 9 23t-9.5 22.5t-22.5 9.5t-22 -9l-417 -417q-9 -9 -9 -22.5t9 -22.5l416 -416q9 -9 22.5 -9t23 9.5t9.5 22.5t-10 23z" />
    <glyph glyph-name="right" unicode="&#xe615;" 
d="M320 -212l471 475q9 10 9 23t-9 22l-471 476q-9 9 -22 9t-22.5 -9.5t-9.5 -22.5t9 -22l450 -453l-450 -453q-9 -9 -9 -22.5t9.5 -22.5t22.5 -9t22 9z" />
    <glyph glyph-name="tuichu" unicode="&#xe616;" 
d="M703 -107h-577q-29 0 -49.5 20.5t-20.5 49.5v674q0 29 20.5 49.5t49.5 20.5h573q9 0 15.5 6.5t6.5 15.5q0 8 -5 14t-13 8h-577q-47 0 -80.5 -33.5t-33.5 -80.5v-674q0 -47 33.5 -80.5t80.5 -33.5h573q9 0 15.5 6.5t6.5 15.5q0 8 -5 14.5t-13 7.5zM1007 318l-135 135v0
l-22 23l-26 25q-6 7 -15 7t-16 -7q-14 -14 -2 -29l39 -39v0l110 -110h-435q-9 0 -15.5 -6.5t-6.5 -16t6.5 -16t15.5 -6.5h435l-100 -100l-6 -6l-46 -46q-8 -16 3 -27q7 -6 16 -6q10 0 18 7l12 12l33 34l7 6l130 131q7 7 6 17v0v1q1 10 -6 17z" />
    <glyph glyph-name="set" unicode="&#xe61f;" 
d="M662 -106v0q-26 0 -43 18q-16 18 -43 36.5t-51 18.5q-23 0 -50.5 -18.5t-42.5 -35.5q-17 -17 -42 -17q-12 0 -22 4h-1l-110 62l-1 1q-15 10 -20 28.5t2 34.5q11 22 11 45q0 48 -34.5 82t-82.5 34h-4v0q-14 0 -24.5 11.5t-13.5 30.5q-10 50 -10 87q0 38 10 88
q3 19 13.5 30.5t24.5 11.5h4q48 0 82.5 34t34.5 82q0 22 -11 45q-7 16 -2 34.5t20 28.5l1 1l116 63l1 1q10 4 22 4q25 0 42 -17q16 -17 42.5 -34.5t49.5 -17.5t49 17t42 34q17 17 42 17q12 0 22 -4l1 -1l112 -62l1 -1q15 -10 20 -28.5t-2 -35.5q-11 -24 -11 -44
q0 -48 34.5 -82t82.5 -34h4q14 0 24.5 -11.5t14.5 -30.5q9 -50 9 -88t-9 -87q-4 -20 -14.5 -31t-24.5 -11h-4q-48 0 -82.5 -34t-34.5 -82q0 -22 11 -45q7 -16 2 -34.5t-20 -28.5l-1 -1l-114 -63l-1 -1q-10 -4 -21 -4v0zM658 -52q2 -1 4 -1v0l106 59q-14 33 -14 65
q0 67 46.5 116t113.5 53q8 45 8 76t-8 77q-67 4 -113.5 52.5t-46.5 116.5q0 32 14 65l-104 58h-1q-2 0 -4 -1q-16 -17 -39 -32q-48 -35 -90 -35q-43 0 -91 35q-23 16 -39 33q-2 1 -4 1h-1l-108 -59q14 -33 14 -65q0 -68 -46.5 -116.5t-113.5 -52.5q-8 -45 -8 -76.5t8 -76.5
q67 -4 113.5 -53t46.5 -116q0 -32 -14 -65l102 -58h1q2 0 3 1q17 18 39 35q50 36 93 36q44 0 94 -37q23 -17 39 -35v0zM526 162q-65 0 -110 45.5t-45 109.5t45 109.5t109.5 45.5t109.5 -45.5t45 -109.5t-45 -109.5t-109 -45.5v0zM526 419q-43 0 -73 -30t-30 -72t30 -72
t72.5 -30t72.5 30t30 72t-30 72t-72 30v0z" />
    <glyph glyph-name="down" unicode="&#xe620;" 
d="M933 472l-404 -346q-2 -1 -5 -3v0h-1l-0.5 -0.5l-0.5 -0.5h-1v0l-1 -1v0h-1v0h-1v0q-1 0 -1 -1h-1h-1v0h-1v0h-1v0h-1h-1v0h-1v0h-1v0h-1h-1q0 1 -1 1v0h-1v0h-1v0l-1 1v0h-1l-0.5 0.5t-1 0.5h-0.5v0q-3 2 -5 3l-404 346q-8 7 -8.5 17.5t6.5 18.5q7 9 19 9q10 0 17 -6
l387 -332l387 332q7 6 17 6q12 0 19 -9q7 -8 6.5 -18.5t-8.5 -17.5z" />
    <glyph glyph-name="right1" unicode="&#xe613;" 
d="M763 329l-448 408q-11 11 -26.5 11t-26.5 -11t-11 -26.5t11 -26.5l421 -384l-421 -383q-11 -11 -11 -26.5t11 -26.5t26.5 -11t26.5 11l448 408q11 12 10 28q1 17 -10 29z" />
    <glyph glyph-name="user" unicode="&#xe60e;" 
d="M518 230q-120 0 -204 84t-84 204t84 204t204 84t204 -84t84 -204q-4 -120 -88 -204t-200 -84zM518 729q-91 0 -154 -63.5t-63 -154.5q0 -90 63 -150.5t154 -60.5q92 0 155 63t63 155q0 89 -64.5 150t-153.5 61zM128 -199h-70q0 10 1 29t10.5 67t25 94t49.5 100t79.5 93.5
t118.5 67t164 29.5h14t37 -4t55.5 -11t65.5 -23.5t71.5 -39t69.5 -59.5t63.5 -83.5t48.5 -113.5t29 -146h-64q-9 84 -34.5 152.5t-56 110t-71.5 72t-73.5 44.5t-69.5 21.5t-51 8.5t-27 0h-1q-77 -1 -140 -24t-101.5 -56.5t-67.5 -79.5t-43 -84.5t-22 -79.5t-9 -58t-1 -27z
" />
    <glyph glyph-name="yanzhengma" unicode="&#xe660;" 
d="M918 544q-55 4 -103 20q-15 4 -31 10q-34 10 -83 36l-1 1q-12 6 -24 13q-15 9 -33 20l-0.5 0.5l-0.5 0.5q-12 8 -23 15q-4 3 -15 11q-1 1 -5 4t-6 4q-43 32 -80 68q-37 -36 -80 -68q-2 -1 -6 -4t-5 -4q-11 -8 -15 -11q-11 -7 -23 -15l-0.5 -0.5l-0.5 -0.5
q-18 -11 -33 -20q-12 -7 -24 -13q0 -1 -1 -1q-49 -26 -83 -36q-16 -6 -30 -10q-49 -16 -104 -20v0q1 -8 3 -61h1q13 -180 50 -282q0 -2 1.5 -5t1.5 -5l1 -1.5t1 -2.5q47 -122 126 -206.5t177 -116.5v-1q22 -7 43 -11q21 4 44 11v1q97 32 176 116.5t126 206.5q1 1 1.5 2.5
l0.5 1.5q1 2 2 5t1 5q37 102 50 282h1q3 53 3 61v0zM871 502l-1 -9q-1 -3 -1 -7q-12 -174 -47 -271q-1 -2 -2 -6l-2 -4q0 -2 -1 -3q-44 -113 -116 -191t-159 -107l-6 -2q-12 -4 -23 -6q-11 2 -23 6l-6 2q-87 29 -159 107t-116 190q0 2 -1 5q-1 0 -2 3q-1 4 -2 6
q-35 97 -47 271q0 4 -1 7l-1 9v5q38 5 70 16q15 4 32 10q38 12 90 40q1 0 2 1q12 6 25 14q15 9 34 21q1 0 1 1q13 8 24 16q5 3 14 9l3 2l4 3q5 4 7 6q27 20 52 42q25 -22 52 -42q3 -2 8 -6l4 -3l1 -1q10 -7 14 -10l24 -16l2 -1q19 -12 34 -21q13 -8 25 -14q1 -1 2 -1
q52 -28 91 -40q16 -6 30 -10q33 -11 71 -16v-5zM711 400l-234 -240l-120 123q-6 7 -15 7t-15 -6.5t-6 -15.5t6 -16l135 -138q6 -6 15 -6t15 6l249 256q7 6 7 15t-6.5 15.5t-15.5 6.5t-15 -7z" />
    <glyph glyph-name="Password" unicode="&#xe604;" 
d="M785 -139h-546q-45 0 -77.5 32t-32.5 78v271q0 46 32.5 78t77.5 32v92q0 113 79 190.5t194 77.5t194 -77.5t79 -190.5v-92q45 0 77.5 -32t32.5 -78v-271q0 -46 -32.5 -78t-77.5 -32zM737 444q0 91 -66.5 156t-158.5 65t-158.5 -65t-66.5 -156v-92h450v92zM848 242
q0 23 -20.5 43t-42.5 20h-546q-22 0 -42.5 -20t-20.5 -43v-271q0 -23 20.5 -44.5t42.5 -21.5h546q22 0 42.5 21.5t20.5 44.5v271zM526 -31h-28q-5 0 -9.5 4t-4.5 9v228q0 6 4.5 10t9.5 4h28q5 0 9.5 -4t4.5 -10v-228q0 -5 -4.5 -9t-9.5 -4z" />
    <glyph glyph-name="weixin" unicode="&#xe69e;" 
d="M625 292q-17 -31 -43 -57q11 -13 28 -13q15 0 26 11t11 26q0 23 -22 33zM467.5 496q-19.5 0 -33.5 -14t-14 -33.5t14 -33t33.5 -13.5t33 13.5t13.5 33t-13.5 33.5t-33 14zM879 812h-742q-57 0 -97 -40t-40 -97v-745q0 -57 40.5 -99.5t96.5 -42.5h742q56 0 99 43t43 99
v745q0 56 -42.5 96.5t-99.5 40.5zM796 52q-11 -4 -17.5 -8t-10.5 -7.5t-4.5 -10t-0.5 -9.5t4.5 -10.5t6.5 -10.5t9 -12.5t9 -12.5q-117 35 -166 55q-65 6 -120 41.5t-80 86.5q-77 -19 -154 -8q-75 -54 -135 -83q65 54 81 118q-66 19 -107 80t-41 136q0 102 85.5 172
t206.5 70q112 0 197.5 -63t94.5 -154q9 1 18 1q106 0 180 -57.5t74 -143.5q0 -69 -38.5 -112t-91.5 -58zM753 299q-14 0 -24 -10t-10 -24t10 -24t24 -10t24 10t10 24t-10 24t-24 10zM266.5 496q-19.5 0 -33 -14t-13.5 -33.5t13.5 -33t33 -13.5t33.5 13.5t14 33t-14 33.5
t-33.5 14z" />
    <glyph glyph-name="share" unicode="&#xe610;" 
d="M1010 615l-267 267q-10 10 -20 0l-20 -20q-9 -10 0 -20l210 -209h-13h-34t-83.5 -7t-121 -22t-132 -49.5t-130.5 -82.5t-103.5 -129t-62.5 -183l1 -19q9 -27 54 19q1 5 2.5 14.5t10.5 38t21.5 56t37 65t55 70t78 65.5t104 56t135 37.5t168.5 14.5h13l-210 -210
q-9 -10 0 -19l20 -20q10 -10 20 0l267 267q10 10 0 20v0zM872 216q-12 0 -20 -8.5t-8 -19.5v-111q0 -65 -36.5 -102t-102.5 -37h-500q-62 0 -100.5 39.5t-38.5 99.5v444q0 139 139 139h222q12 0 20 8.5t8 19.5t-7 18.5t-17 8.5v0.5v0.5h-254q-69 0 -118 -49t-49 -118v-500
q0 -69 49 -118t118 -49h556q69 0 118 49t49 118v139q0 11 -8.5 19.5t-19.5 8.5v0z" />
    <glyph glyph-name="yanzhengma1" unicode="&#xe65d;" 
d="M511.5 -99q-18.5 0 -32.5 11l-211 155q-87 63 -136 160.5t-49 204.5v260q0 18 10.5 33t28.5 20l365 118q12 4 25 4t25 -4l365 -118q17 -5 28 -20t11 -33v-260q0 -107 -49 -204t-136 -161l-211 -155q-15 -11 -33.5 -11zM145 687v-255q0 -93 42.5 -176.5t117.5 -138.5
l207 -153l207 153q75 55 117.5 138.5t42.5 176.5v255l-361 117q-3 1 -6 1t-6 -1zM743 592h-462q-13 0 -22 -9t-9 -22t9 -22t22 -9h200v-374q0 -13 9 -22t22 -9t22 9t9 22v374h200q13 0 22 9t9 22t-9 22t-22 9z" />
    <glyph glyph-name="alipay" unicode="&#xe646;" 
d="M1021 195v523q0 72 -51.5 123.5t-123.5 51.5h-668q-72 0 -123.5 -51.5t-51.5 -123.5v-668q0 -72 51.5 -123.5t123.5 -51.5h668q69 0 119.5 47.5t54.5 115.5l-395 175q-5 -7 -14.5 -19t-41.5 -42t-67 -53t-88.5 -42t-107.5 -19q-56 0 -99 13t-67.5 32.5t-40 45.5t-21 49
t-5.5 46q0 29 10.5 57.5t33.5 56t67 44.5t104 17q56 0 110.5 -8.5t95.5 -22t59 -20.5t31 -13h1q23 40 37.5 73.5t17.5 46.5l3 13h-395v47h197v70h-244v46h244v87q0 12 4.5 19.5t8.5 8.5l5 1h98v-116h256v-46h-256v-70h210q-7 -46 -27.5 -98.5t-37.5 -81.5l-17 -29zM120 218
q0 -4 1 -11.5t10 -26.5t24 -33.5t48.5 -26.5t78.5 -12q44 0 86.5 15t72 36.5t52.5 42.5t34 36l11 15q-4 3 -13 8t-37.5 18.5t-59.5 23t-78.5 18t-96.5 8.5q-38 0 -65.5 -11.5t-40 -27.5t-19.5 -32.5t-8 -27.5v-12z" />
    <glyph glyph-name="qiandaochenggong" unicode="&#xe6a6;" 
d="M964 635h-904v100q0 17 17 34.5t34 17.5h140v-52q0 -8 6 -14t15 -6h14q15 0 15 20v52h424v-52q0 -8 7.5 -14t15.5 -6h5q9 0 15 6t6 14v52h140q16 0 33.5 -17.5t17.5 -34.5l-1 -100v0zM437 107q10 -10 23 -10t23 10l238 263q27 29 12 46q-17 19 -38 -5l-234 -260l-135 151
q-8 3 -13.5 2.5t-9.5 -2.5l-4 -2q-18 -20 5 -45zM964 575v-582q2 -32 -17.5 -51t-43.5 -20h-782q-25 0 -42 18.5t-19 52.5v592h904v-10zM894 836h-121v40q0 8 -6 14t-15 6h-8q-8 0 -14 -6t-6 -14v-40h-424v40q0 20 -17 20h-12q-9 0 -15 -6t-6 -14v-40h-141
q-45 0 -72.5 -29.5t-27.5 -71.5v-766q0 -48 26.5 -72.5t73.5 -24.5h803q45 0 72.5 28t27.5 69v765q1 41 -35.5 71.5t-82.5 30.5v0z" />
    <glyph glyph-name="icon" unicode="&#xe618;" 
d="M797 439q51 27 81 76t30 107q0 87 -63.5 148.5t-152.5 61.5q-19 0 -39 -4q14 -22 21 -51q16 2 18 2q67 0 114.5 -46t47.5 -111t-47.5 -111.5t-114.5 -46.5q-2 0 -6.5 1t-6.5 1q0 -1 -0.5 -1t-0.5 -1q-21 -19 -11 -54q15 2 25 2q59 0 111.5 -44t86 -107t52.5 -138
q12 23 16 37q9 38 -4.5 90.5t-55 106.5t-101.5 82zM566 414q51 30 81.5 81.5t30.5 112.5q0 92 -65.5 158t-158 66t-158 -66t-65.5 -158q0 -61 30.5 -112.5t81.5 -81.5q-79 -36 -144 -116.5t-100.5 -176.5t-35.5 -185h56q-2 63 26.5 141.5t74.5 146.5t109.5 114t124.5 46
t124.5 -46t109.5 -114t75 -146.5t27 -141.5h56q3 89 -32.5 185.5t-101.5 176.5t-146 116zM286 607.5q0 69.5 49.5 119t119 49.5t118.5 -49.5t49 -119t-49 -118.5t-118.5 -49t-119 49t-49.5 118.5z" />
    <glyph glyph-name="shitu" unicode="&#xe61b;" 
d="M944 169q-26 62 -74 109.5t-109 73.5q-2 1 -6 2q20 13 36 29q64 65 64 156t-64.5 155.5t-155.5 64.5q-62 0 -115 -33q28 -18 49 -43q31 14 66 14q66 0 112.5 -46.5t46.5 -112t-46.5 -112t-112.5 -46.5q-38 0 -71 17q-20 -23 -46 -39q7 -3 13 -6q35 -14 65 -36q15 2 31 2
q117 0 200 -83t83 -200q0 -13 9 -22t21.5 -9t21.5 9t9 22q0 70 -27 134zM531 352q-6 3 -13 6q26 16 46 39q54 63 54 146q0 79 -49 140q-21 25 -49 43q-55 38 -123 38q-91 0 -156 -65t-65 -156q0 -57 27.5 -106t73.5 -79q-8 -3 -14 -6q-61 -26 -109 -73.5t-74 -109.5
q-27 -64 -27 -134q0 -13 9 -22t21.5 -9t21.5 9t9 22q0 117 83 200t200.5 83t200 -83t82.5 -200q0 -13 9 -22t22 -9t22 9t9 22q0 70 -27 134q-26 62 -74 109q-21 21 -45 38q-30 22 -65 36zM238 543q0 66 46.5 112.5t113 46.5t113 -46.5t46.5 -112.5t-46.5 -113t-113 -47
t-113 47t-46.5 113z" />
    <glyph glyph-name="mobile" unicode="&#xe6dd;" 
d="M683 -128h-342q-53 0 -90.5 37.5t-37.5 90.5v85v43v640q0 53 37.5 90.5t90.5 37.5h342q53 0 90.5 -37.5t37.5 -90.5v-640v-43v-85q0 -53 -37.5 -90.5t-90.5 -37.5zM768 768q0 35 -25 60t-60 25h-342q-35 0 -60 -25t-25 -60v-640h512v640zM768 85h-512v-85q0 -35 25 -60
t60 -25h342q35 0 60 25t25 60v85zM555 -43h-86q-17 0 -29.5 12.5t-12.5 30.5t12.5 30.5t29.5 12.5h86q17 0 29.5 -12.5t12.5 -30.5t-12.5 -30.5t-29.5 -12.5z" />
    <glyph glyph-name="yaoqing" unicode="&#xe6ac;" 
d="M495 852v-24q101 0 171.5 -70.5t70.5 -171t-70.5 -171.5t-171 -71t-171.5 71t-71 171.5t71 171t171 70.5v47q-119 0 -203.5 -84.5t-84.5 -204t84.5 -204t204 -84.5t204 84.5t84.5 204t-84.5 204t-204.5 84.5v-23zM495 852v-24q101 0 171.5 -70.5t70.5 -171t-70.5 -171.5
t-171 -71t-171.5 71t-71 171.5t71 171t171 70.5v47q-119 0 -203.5 -84.5t-84.5 -204t84.5 -204t204 -84.5t204 84.5t84.5 204t-84.5 204t-204.5 84.5v-23zM772 205v-314h93v314h-93zM982 100h-326v-93h326v93zM101 -101q2 109 57 200.5t148 145t203 53.5q125 0 227 -73h76
q-118 119 -304 119q-91 0 -174.5 -35.5t-144.5 -95t-97.5 -142t-38.5 -172.5h48z" />
    <glyph glyph-name="tikuan" unicode="&#xe676;" 
d="M904 711q0 31 -22.5 53.5t-53.5 22.5h-689q-31 0 -53 -22.5t-22 -53.5v-84h840v84v0v0zM737 454q95 0 167 -63v123h-840v-316q0 -31 22 -53t53 -22h357q-12 38 -12 78q0 105 74 179t179 74v0v0zM943 287q-18 40 -48.5 70t-71 47.5t-86.5 17.5t-86.5 -17.5t-71.5 -47.5
q-30 -30 -48 -70t-18 -86t18 -86q18 -41 48 -71t71 -47q40 -17 87 -17q46 0 86 17q41 17 72 47q30 31 48 71q17 40 17 86q1 45 -17 86v0v0zM863 97q-10 28 -34.5 45t-53.5 17v-94q0 -10 -7 -16.5t-17 -6.5q-12 0 -19 10l-132 131q-8 7 -8 18q0 10 7 17v0l136 137v0q7 6 16 6
q10 0 17 -7t7 -17v-71q44 0 75.5 -31.5t31.5 -75.5q0 -34 -19 -62v0v0zM863 97z" />
    <glyph glyph-name="lianxikefu" unicode="&#xe600;" 
d="M684 208q4 6 3 13.5t-7 12.5q-5 5 -13 4t-13 -7q-58 -65 -142 -65q-46 0 -78 14.5t-64 50.5q-5 6 -13 7t-14 -4q-5 -5 -6.5 -12.5t3.5 -13.5q39 -44 78.5 -62.5t93.5 -18.5q103 0 172 81v0v0zM381 397v67q0 13 -9.5 23t-23.5 10t-23.5 -9.5t-9.5 -23.5v-67q0 -13 9.5 -23
t23.5 -10q13 0 23 10t10 23v0v0zM150 194q-21 40 -27 73.5t-6 91.5q0 111 53 205.5t144 149t197.5 54.5t197 -54.5t143 -149t52.5 -205.5q0 -214 -197 -332h-2q-9 2 -14 2q-25 0 -42.5 -18t-17.5 -43t17.5 -43t42.5 -18t42.5 18t17.5 43q0 6 -2 14l-1 6q66 43 107.5 84.5
t66.5 100.5l13 34q38 6 63.5 39.5t25.5 79.5q0 39 -19.5 70.5t-50.5 43.5l-7 34v0v0q-37 153 -158 252t-277 99t-277 -99t-158 -252l-4 -24q-33 -13 -53 -48t-20 -76q0 -50 28 -87.5t69 -43.5q16 -2 29.5 -2h18.5zM709 397v67q0 13 -9.5 23t-23.5 10q-13 0 -23 -9.5
t-10 -23.5v-67q0 -13 9.5 -23t23.5 -10q13 0 23 10t10 23v0v0zM720 404z" />
    <glyph glyph-name="money" unicode="&#xe7f2;" 
d="M925 558q-34 81 -96 142.5t-143 95.5q-83 36 -174 36t-174 -36q-80 -34 -142 -95.5t-96 -142.5q-35 -83 -35 -174t35 -174q34 -81 96 -142.5t142 -95.5q83 -36 174 -36t174 36q81 34 143 95.5t96 142.5q35 83 35 174t-35 174zM512.5 -13q-107.5 0 -199.5 53t-145 144.5
t-53 199.5t53 199.5t145 144.5t199.5 53t199 -53t145 -144.5t53.5 -199.5t-53.5 -199.5t-145 -144.5t-199 -53zM536 424l151 165q11 17 -4 30q-8 5 -15.5 4t-12.5 -4l-5 -4l-138 -150l-135 148q-1 1 -2.5 2t-6.5 4t-9.5 4t-10.5 0.5t-10 -3.5q-7 -7 -7.5 -15.5t3.5 -13.5
l3 -5l147 -162v-40h-151v-45h151v-45h-151v-44h151v-114h52v114h155v44h-155v45h155v45h-155v40z" />
    <glyph glyph-name="jianglimingxi" unicode="&#xe645;" 
d="M932 716h-36v109q0 29 -20.5 50t-50.5 21h-732q-30 0 -50.5 -20.5t-20.5 -50.5v-883q0 -29 20.5 -49.5t50.5 -20.5h732q22 0 39.5 11.5t25.5 30.5q50 9 78 44t34 81v607q0 29 -20.5 49.5t-49.5 20.5zM855 -58q0 -12 -8.5 -20.5t-21.5 -8.5h-732q-13 0 -21.5 8.5
t-8.5 20.5v883q0 13 8.5 21.5t21.5 8.5h732q13 0 21.5 -9t8.5 -21v-883v0zM896 -42v717h36q12 0 20.5 -8.5t8.5 -20.5v-601v-3q-2 -14 -7 -28t-20 -31.5t-38 -24.5zM715 755h-511q-18 0 -30.5 -12.5t-12.5 -29.5v-88q0 -17 12.5 -29t30.5 -12h511q17 0 29.5 12t12.5 29v88
q0 17 -12.5 29.5t-29.5 12.5zM610 241q8 0 14 6t6 14.5t-6 14.5t-14 6h-121l115 167q5 7 3.5 15.5t-8.5 13.5t-15.5 3.5t-13.5 -8.5l-121 -177l-121 177q-5 7 -13.5 8.5t-15.5 -3.5t-8.5 -13.5t3.5 -15.5l115 -167h-126q-9 0 -15 -6t-6 -14.5t6 -14.5t15 -6h145v-82h-145
q-9 0 -15 -6t-6 -14.5t6 -14.5t15 -6h145v-74q0 -9 6 -15t14.5 -6t14.5 6t6 15v74h141q8 0 14 6t6 14.5t-6 14.5t-14 6h-141v82h141z" />
    <glyph glyph-name="weibiaoti-" unicode="&#xe601;" 
d="M449 775h-282q-17 0 -29 -12t-12 -29v-281q0 -17 12 -29t29 -12h282q16 0 28 12t12 29v281q0 17 -12 29t-28 12zM871 775h-282q-16 0 -28 -12t-12 -29v-281q0 -17 12 -29t28 -12h282q17 0 28.5 12t11.5 29v281q0 17 -12 29t-28 12zM863 461h-265v266h265v-266zM449 352
h-282q-17 0 -29 -11.5t-12 -28.5v-282q0 -16 12 -28t29 -12h282q16 0 28 11.5t12 28.5v282q0 17 -12 28.5t-28 11.5zM440 39h-265v265h265v-265zM871 352h-282q-16 0 -28 -11.5t-12 -28.5v-282q0 -16 12 -28t28 -12h282q17 0 28.5 11.5t11.5 28.5v282q0 17 -12 28.5
t-28 11.5zM863 39h-265v265h265v-265z" />
    <glyph glyph-name="shoukuanjilu" unicode="&#xe804;" 
d="M506 -113h-325q-64 0 -108.5 44.5t-44.5 108.5v703q0 63 44.5 108t108.5 45h523q63 0 107.5 -45t44.5 -108v-436q0 -12 -8 -20t-19.5 -8t-19.5 8t-8 20v436q0 41 -28.5 69t-68.5 28h-523q-41 0 -69.5 -28t-28.5 -69v-703q0 -41 28.5 -69.5t69.5 -28.5h325q11 0 19 -8
t8 -19.5t-8 -19.5t-19 -8zM413 408v47h-90q-29 0 -29 21t29 23h62l-107 163q-3 0 -5 5q-5 7 -5 21q0 18 23 23q18 -2 31 -18l119 -178l119 178q11 16 31 18q21 -5 23 -23q0 -7 -8 -21q-2 -2 -2 -5l-107 -163h62q26 -3 29 -23q-3 -21 -29 -21h-91v-47h91q26 -3 28 -23
q-2 -21 -28 -21h-91v-104q-3 -26 -29 -26q-28 0 -28 26v104h-91q-29 0 -29 21t29 23h93zM679 36v-37l-61 74l-2 2t-1 2v0v1v1q0 5 2 6l61 68v-45h10q33 0 57 -10t37.5 -26.5t21 -33t10.5 -34.5q-40 50 -110 50h-12l-14 -1v-18h1v1zM714.5 278q-84.5 0 -143.5 -59.5
t-59 -143.5t59.5 -143.5t143.5 -59.5t143.5 59.5t59.5 143.5t-59.5 143.5t-144 59.5z" />
    <glyph glyph-name="bianhao" unicode="&#xe608;" 
d="M64.5 535q13.5 0 23 9.5t9.5 23.5v0v160q0 28 20 47.5t48 19.5h160q14 0 23.5 10t9.5 23.5t-9.5 23.5t-23.5 10h-160q-55 0 -94 -39.5t-40 -94.5v-160q0 -14 10 -23.5t23.5 -9.5zM857 862h-159q-14 0 -24 -10t-10 -23.5t10 -23.5t24 -10h159q28 0 46.5 -19.5t18.5 -47.5
v-160q0 -14 10 -23.5t24 -9.5t24 9.5t10 23.5v160q0 55 -39 94.5t-94 39.5v0zM956 228v0q-14 0 -23.5 -9.5t-9.5 -23.5v-160q0 -28 -19 -46.5t-47 -18.5h-159q-14 0 -24 -10t-10 -24t10 -23.5t24 -9.5h159h1q54 0 93 38.5t39 92.5v1v160q-1 14 -10.5 23.5t-23.5 9.5v0v0z
M325 -30h-160q-28 0 -48 19t-20 46v160v2q0 14 -9.5 23.5t-23 9.5t-23.5 -9.5t-10 -23.5v-2v-160q0 -55 39.5 -93.5t94.5 -38.5h160q14 0 23.5 9.5t9.5 23.5t-9.5 24t-23.5 10zM957 418h-892h-1q-14 0 -23.5 -10t-9.5 -23.5t9.5 -23t23.5 -9.5h1h892h2q13 0 23 9.5t10 23
t-10 23.5t-23 10h-2z" />
    <glyph glyph-name="fenxiangzhuanqian" unicode="&#xe653;" 
d="M928 224q0 -67 -22 -114.5t-57 -75t-92.5 -42.5t-112 -19.5t-132.5 -4.5t-132.5 4.5t-112 19.5t-92.5 42.5t-57 75t-22 114.5q0 135 78.5 243t202.5 151l-32 55q-13 23 -6.5 49t29.5 39q21 12 43.5 8t37.5 -21q5 22 22.5 37t41 15t41 -15t22.5 -37q15 17 37.5 21t42.5 -8
q24 -13 30.5 -39t-6.5 -49l-32 -56q124 -42 202 -150t78 -243zM652 689q7 12 3.5 25t-15 19.5t-24.5 3t-20 -14.5l-20 -32q-4 -8 -14 -8q-6 0 -11 4.5t-5 10.5v0l-1 39q0 13 -9.5 22.5t-23 9.5t-23 -9.5t-9.5 -22.5l-1 -39v0q0 -6 -5 -10.5t-11 -4.5q-10 0 -14 8l-20 32
q-7 11 -20 14.5t-24.5 -3t-15 -19.5t3.5 -25l36 -62q50 13 103 13t104 -13v0zM512 608q-48 0 -93 -11q-127 -29 -209 -130t-82 -243q0 -36 9 -66.5t21.5 -52.5t35.5 -39t43 -28t51.5 -18.5t53 -11.5t57 -6t53 -2h50.5h10h10q60 0 95 1.5t95.5 13t94.5 33.5t61.5 67t27.5 109
q0 167 -114 275.5t-270 108.5zM640 64q-7 0 -11.5 4.5t-4.5 11.5t4.5 11.5t11.5 4.5q160 0 160 144q0 7 4.5 11.5t11.5 4.5t11.5 -4.5t4.5 -11.5q0 -176 -192 -176zM816 304q-7 0 -11.5 4.5t-4.5 11.5t4.5 11.5t11.5 4.5t11.5 -4.5t4.5 -11.5t-4.5 -11.5t-11.5 -4.5z
M551 320h57q7 0 11.5 -4.5t4.5 -11.5t-4.5 -11.5t-11.5 -4.5h-80v-64h80q7 0 11.5 -4.5t4.5 -11.5t-4.5 -11.5t-11.5 -4.5h-80v-80q0 -7 -4.5 -11.5t-11.5 -4.5t-11.5 4.5t-4.5 11.5v80h-80q-7 0 -11.5 4.5t-4.5 11.5t4.5 11.5t11.5 4.5h80v64h-80q-7 0 -11.5 4.5t-4.5 11.5
t4.5 11.5t11.5 4.5h57l-69 69q-11 11 0.5 22.5t22.5 0.5l85 -86l85 85q4 5 11 5t11 -5q12 -11 0 -22z" />
    <glyph glyph-name="tixianjilu" unicode="&#xe6d2;" 
d="M723 469q-124 0 -211.5 -87.5t-87.5 -211t87.5 -211t211.5 -87.5t211.5 87.5t87.5 211t-87.5 211t-211.5 87.5zM723 -59q-95 0 -162.5 67.5t-67.5 162.5t67.5 162t162.5 67t162.5 -67t67.5 -162t-67.5 -162.5t-162.5 -67.5zM170 198v-51h200q-1 14 -1 24t1 27h-200z
M427 -23h-325q-14 0 -24 10t-10 24v782q0 14 10 24t24 10h714q15 0 25 -10t10 -24v-292q36 -15 67 -36v355q0 32 -22 54t-53 22h-767q-32 0 -54 -22t-22 -54v-836q0 -32 22 -54t54 -22h410q-34 31 -59 69zM748 657h-578v-51h578v51zM479 427h-309v-51h265q20 27 44 51z
M792 314l-69 -94l-69 94h-45l68 -94h-68v-38h95v-39h-95v-38h95v-106h38v106h95v38h-95v39h95v38h-69l69 94h-45z" />
    <glyph glyph-name="xinshourumen" unicode="&#xe6e9;" 
d="M934 16h-281v1q-23 -26 -60.5 -40.5t-80.5 -14.5t-80.5 14.5t-60.5 40.5v-1h-281q-35 0 -60 24t-25 58v627q0 34 25 57.5t60 23.5h281q44 0 81 -19.5t60 -53.5q23 34 60.5 53.5t80.5 19.5h281q35 0 60 -24t25 -57v-627q0 -34 -25 -58t-60 -24zM963 725q0 11 -8.5 19
t-19.5 8h-282q-47 0 -80 -32t-33 -77v-300q0 -11 -8 -19t-20 -8t-20 8t-8 19v300q0 45 -33 77t-80 32h-281q-12 0 -20 -8t-8 -19v-627q0 -12 8 -20t20 -8h276q29 0 37 -11q13 -19 43 -31t66.5 -12t66 12t42.5 31q8 12 39 11h106h169q11 0 19.5 8t8.5 20v627v0z" />
  </font>
</defs>
</svg>
